Coordinates
version=1
nRows=14
nColumns=24
inDegrees=yes

Units are S.I. units (second, meters, Newtons, ...)
Angles are in degrees.

endheader
time	pelvis_tilt	pelvis_list	pelvis_rotation	pelvis_tx	pelvis_ty	pelvis_tz	hip_flexion_r	hip_adduction_r	hip_rotation_r	knee_angle_r	ankle_angle_r	subtalar_angle_r	mtp_angle_r	hip_flexion_l	hip_adduction_l	hip_rotation_l	knee_angle_l	ankle_angle_l	subtalar_angle_l	mtp_angle_l	lumbar_extension	lumbar_bending	lumbar_rotation
      1.94000000	      3.54970694	     -4.59788932	     -7.47052441	     -0.72009690	      0.98989609	      0.03479732	    -20.86012714	      2.86071473	      0.75579009	     -3.57195557	     17.25714446	      7.34602525	      5.84018941	     17.75922858	     -6.66326840	    -16.80124645	     -1.70098742	      0.35560956	     11.63665514	     22.95922501	    -12.30981033	      4.54644310	      8.84187905
      1.94500000	      3.63678283	     -4.48772544	     -7.53768858	     -0.71392220	      0.98931173	      0.03423347	    -21.19729476	      2.59803120	      0.73801415	     -3.78214547	     17.32682526	      7.55688257	      6.05884998	     17.69545249	     -6.47528304	    -16.87237206	     -2.06296871	     -0.03084690	     11.13769274	     22.94740543	    -12.34219904	      4.41104144	      8.83915293
      1.95000000	      3.85783735	     -4.28257885	     -7.63535161	     -0.70761786	      0.98901304	      0.03373882	    -21.66211336	      2.20999304	      0.68002247	     -3.99468707	     17.26194508	      7.72655761	      7.46430764	     17.45910953	     -6.18626259	    -17.07157312	     -2.42922882	     -0.57017378	     10.72717689	     23.66555371	    -12.49913845	      4.14017937	      8.84842124
      1.95500000	      3.92154419	     -4.16535199	     -7.63143392	     -0.70155174	      0.98850931	      0.03305434	    -21.92866764	      1.97290014	      0.65627854	     -4.27034121	     17.30089219	      7.83122156	      7.67973899	     17.46508758	     -5.98811843	    -16.91788936	     -2.91363148	     -1.09250066	     10.05499448	     23.66164011	    -12.51584242	      4.00931617	      8.77425060
      1.96000000	      4.05340270	     -3.97724070	     -7.62881158	     -0.69540008	      0.98818960	      0.03238475	    -22.23739191	      1.65604285	      0.53350183	     -4.58218124	     17.20144207	      7.95661698	      9.55551336	     17.38527434	     -5.71435279	    -16.81726310	     -3.40138665	     -1.80511259	      9.39821673	     24.89425844	    -12.59113137	      3.78755085	      8.69371320
      1.96500000	      4.12915009	     -3.82484753	     -7.62114036	     -0.68938173	      0.98790557	      0.03169257	    -22.45547552	      1.39139625	      0.51796391	     -4.94413284	     17.14659527	      7.97447521	      9.73966154	     17.38292646	     -5.49106193	    -16.61280099	     -3.94661363	     -2.42717596	      8.69936382	     24.84303094	    -12.62663549	      3.61256903	      8.60953032
      1.97000000	      4.23946667	     -3.65779578	     -7.49859725	     -0.68338961	      0.98771620	      0.03082018	    -22.68062769	      1.14985671	      0.30447204	     -5.36146635	     17.10693643	      8.09696900	     10.34975425	     17.37653954	     -5.22246337	    -16.24313485	     -4.52904106	     -3.10781392	      7.98308354	     25.08500290	    -12.69832879	      3.43724647	      8.44845756
      1.97500000	      4.23244579	     -3.46840788	     -7.45613907	     -0.67740476	      0.98748478	      0.03007271	    -22.74094516	      0.88034219	      0.24437405	     -5.81979449	     16.79938516	      8.02987177	     12.96156136	     17.49716165	     -4.97858598	    -15.96976494	     -5.15195769	     -3.88633598	      7.16007612	     26.59634404	    -12.64286095	      3.23631482	      8.31982797
      1.98000000	      4.32591080	     -3.24778392	     -7.39445550	     -0.67140526	      0.98750689	      0.02932638	    -22.90036154	      0.57835637	      0.17942803	     -6.29505083	     16.68026263	      7.98894530	     13.12803557	     17.50046517	     -4.69296175	    -15.69587560	     -5.78581813	     -4.47778062	      6.47955882	     26.49884656	    -12.69546315	      2.98427698	      8.19701878
      1.98500000	      4.23339961	     -3.12141480	     -7.19593655	     -0.66560995	      0.98731792	      0.02832509	    -22.78198278	      0.45062115	     -0.02949942	     -6.91801521	     16.36105431	      7.91149178	     15.44593018	     17.79217588	     -4.49850727	    -15.13426613	     -6.54366510	     -5.08597943	      5.65893626	     27.23359523	    -12.57425203	      2.89359429	      7.95249330
      1.99000000	      4.35116471	     -2.87644827	     -7.00269618	     -0.65959178	      0.98753235	      0.02739288	    -22.90531640	      0.17365515	     -0.33677870	     -7.50682969	     16.11558756	      7.95459514	     16.22480219	     17.80681432	     -4.16189819	    -14.72947955	     -7.24824681	     -5.56642596	      5.04403315	     27.29547837	    -12.65123479	      2.63181276	      7.69384004
      1.99500000	      4.24842996	     -2.75894776	     -6.83512355	     -0.65384984	      0.98755016	      0.02645215	    -22.70044959	      0.05290912	     -0.45826700	     -8.24633222	     15.76030960	      7.78390121	     18.29680840	     18.10978697	     -4.00028916	    -14.21474259	     -8.05895192	     -6.02369355	      4.28694523	     27.61773871	    -12.53266047	      2.54125965	      7.51295448
      2.00000000	      4.37135438	     -2.51904713	     -6.68046373	     -0.64785914	      0.98799501	      0.02556289	    -22.74668524	     -0.22973824	     -0.70062851	     -8.96867822	     15.48607515	      7.79362195	     18.56891030	     18.10519032	     -3.68640231	    -13.85318200	     -8.78877303	     -6.35298262	      3.64795364	     27.53088553	    -12.62766924	      2.27739825	      7.31254449
      2.00500000	      4.17944599	     -2.45850898	     -6.40461764	     -0.64217658	      0.98802118	      0.02446600	    -22.37682221	     -0.23985778	     -0.92701610	     -9.83385101	     14.97005812	      7.55482049	     21.35419348	     18.56153178	     -3.57191393	    -13.20083195	     -9.72366679	     -6.53903764	      3.00586213	     27.59651506	    -12.42518126	      2.27820630	      7.05447840
